<svg width="205" height="43" viewBox="0 0 205 43" fill="none" xmlns="http://www.w3.org/2000/svg">
<path d="M16.4 19.79C16.66 19.79 16.86 19.92 17 20.18C17.14 20.44 17.21 20.77 17.21 21.17C17.21 21.67 17.14 22.06 17 22.34C16.86 22.6 16.64 22.78 16.34 22.88C15.14 23.3 13.82 23.54 12.38 23.6C11.98 25.26 11.22 26.6 10.1 27.62C9 28.64 7.78 29.15 6.44 29.15C4.42 29.15 2.95 28.38 2.03 26.84C1.11 25.3 0.65 23.07 0.65 20.15C0.65 17.57 0.97 14.77 1.61 11.75C2.25 8.71 3.18 6.13 4.4 4.01C5.64 1.87 7.11 0.799998 8.81 0.799998C9.73 0.799998 10.47 1.2 11.03 2C11.59 2.78 11.87 3.8 11.87 5.06C11.87 6.7 11.56 8.33 10.94 9.95C10.32 11.57 9.29 13.27 7.85 15.05C9.19 15.15 10.28 15.71 11.12 16.73C11.96 17.73 12.46 18.97 12.62 20.45C13.56 20.39 14.68 20.19 15.98 19.85C16.1 19.81 16.24 19.79 16.4 19.79ZM8.12 3.77C7.72 3.77 7.28 4.37 6.8 5.57C6.34 6.75 5.91 8.36 5.51 10.4C5.11 12.44 4.81 14.67 4.61 17.09C5.93 14.67 6.98 12.54 7.76 10.7C8.56 8.84 8.96 7.19 8.96 5.75C8.96 5.11 8.88 4.62 8.72 4.28C8.58 3.94 8.38 3.77 8.12 3.77ZM6.56 25.97C7.18 25.97 7.73 25.71 8.21 25.19C8.69 24.67 9.01 23.92 9.17 22.94C8.55 22.52 8.07 21.97 7.73 21.29C7.41 20.61 7.25 19.89 7.25 19.13C7.25 18.85 7.29 18.47 7.37 17.99H7.28C6.46 17.99 5.77 18.4 5.21 19.22C4.67 20.02 4.4 21.1 4.4 22.46C4.4 23.6 4.61 24.47 5.03 25.07C5.47 25.67 5.98 25.97 6.56 25.97ZM25.1197 15.02C25.5797 15.02 25.8997 15.08 26.0797 15.2C26.2597 15.32 26.3497 15.52 26.3497 15.8C26.3497 16.28 26.0897 17.99 25.5697 20.93C25.1097 23.75 24.8397 25.42 24.7597 25.94C24.0197 31.08 22.9997 35.15 21.6997 38.15C20.3997 41.15 18.6697 42.65 16.5097 42.65C15.4897 42.65 14.6597 42.33 14.0197 41.69C13.3797 41.07 13.0597 40.25 13.0597 39.23C13.0597 38.29 13.2697 37.33 13.6897 36.35C14.1297 35.37 14.9297 34.24 16.0897 32.96C17.2697 31.7 18.9297 30.25 21.0697 28.61L21.1597 27.92C21.2997 27.18 21.4597 26.12 21.6397 24.74C21.2397 26.18 20.6797 27.28 19.9597 28.04C19.2397 28.78 18.4797 29.15 17.6797 29.15C16.7797 29.15 16.0397 28.74 15.4597 27.92C14.8997 27.08 14.6197 26.04 14.6197 24.8C14.6197 23.3 14.7197 21.93 14.9197 20.69C15.1197 19.43 15.4497 18.1 15.9097 16.7C16.1097 16.1 16.3897 15.67 16.7497 15.41C17.1097 15.15 17.6797 15.02 18.4597 15.02C18.8997 15.02 19.1997 15.09 19.3597 15.23C19.5397 15.37 19.6297 15.58 19.6297 15.86C19.6297 16.02 19.5197 16.56 19.2997 17.48C19.0997 18.22 18.9397 18.89 18.8197 19.49C18.6597 20.31 18.5197 21.1 18.3997 21.86C18.2797 22.6 18.2197 23.21 18.2197 23.69C18.2197 24.45 18.4297 24.83 18.8497 24.83C19.1497 24.83 19.5197 24.53 19.9597 23.93C20.4197 23.33 20.8997 22.42 21.3997 21.2C21.9197 19.98 22.4197 18.48 22.8997 16.7C23.0597 16.1 23.2997 15.67 23.6197 15.41C23.9597 15.15 24.4597 15.02 25.1197 15.02ZM16.8397 39.74C17.3397 39.74 17.8997 39.16 18.5197 38C19.1397 36.84 19.7597 34.91 20.3797 32.21C18.8397 33.51 17.7197 34.69 17.0197 35.75C16.3397 36.83 15.9997 37.77 15.9997 38.57C15.9997 38.91 16.0597 39.19 16.1797 39.41C16.3197 39.63 16.5397 39.74 16.8397 39.74ZM37.8957 21.62C37.4157 21.66 37.0257 21.52 36.7257 21.2C36.4457 20.88 36.3057 20.43 36.3057 19.85C36.3057 19.31 36.4357 18.91 36.6957 18.65C36.9757 18.39 37.3757 18.24 37.8957 18.2L44.0457 17.6C44.5457 17.56 44.9257 17.69 45.1857 17.99C45.4657 18.27 45.6057 18.69 45.6057 19.25C45.6057 20.33 45.0857 20.92 44.0457 21.02L37.8957 21.62ZM68.2248 29.15C65.8448 29.15 63.7748 28.72 62.0148 27.86C60.2548 26.98 58.9048 25.74 57.9648 24.14C57.0248 22.54 56.5548 20.68 56.5548 18.56C56.5548 15.62 57.1048 13.01 58.2048 10.73C59.3248 8.45 60.8348 6.69 62.7348 5.45C64.6348 4.19 66.7448 3.56 69.0648 3.56C71.2248 3.56 72.8648 4.12 73.9848 5.24C75.1048 6.34 75.6648 7.8 75.6648 9.62C75.6648 10.84 75.4448 11.82 75.0048 12.56C74.5848 13.3 73.9748 13.67 73.1748 13.67C72.6148 13.67 72.1748 13.54 71.8548 13.28C71.5348 13.02 71.3748 12.64 71.3748 12.14C71.3748 11.96 71.4148 11.63 71.4948 11.15C71.6148 10.55 71.6748 10.07 71.6748 9.71C71.6748 7.89 70.7048 6.98 68.7648 6.98C67.4448 6.98 66.1848 7.41 64.9848 8.27C63.7848 9.13 62.8148 10.4 62.0748 12.08C61.3348 13.74 60.9648 15.72 60.9648 18.02C60.9648 20.42 61.6348 22.28 62.9748 23.6C64.3148 24.9 66.2948 25.55 68.9148 25.55C70.2148 25.55 71.5248 25.39 72.8448 25.07C74.1848 24.73 75.6648 24.22 77.2848 23.54C77.5848 23.42 77.8348 23.36 78.0348 23.36C78.3548 23.36 78.5948 23.48 78.7548 23.72C78.9148 23.96 78.9948 24.27 78.9948 24.65C78.9948 25.87 78.3348 26.77 77.0148 27.35C75.5948 27.97 74.1148 28.43 72.5748 28.73C71.0548 29.01 69.6048 29.15 68.2248 29.15ZM114.741 16.04C115.201 16.04 115.531 16.14 115.731 16.34C115.951 16.54 116.061 16.8 116.061 17.12C116.061 17.64 115.901 18.1 115.581 18.5C115.281 18.9 114.801 19.11 114.141 19.13C112.561 19.15 111.141 19.03 109.881 18.77C108.481 21.75 106.791 24.23 104.811 26.21C102.851 28.17 100.911 29.15 98.9912 29.15C97.2312 29.15 95.9112 28.22 95.0312 26.36C94.1512 24.48 93.6512 21.97 93.5312 18.83C92.3312 22.31 90.9712 24.9 89.4512 26.6C87.9512 28.3 86.3512 29.15 84.6512 29.15C82.7312 29.15 81.2812 27.96 80.3012 25.58C79.3212 23.18 78.8312 19.96 78.8312 15.92C78.8312 12.98 79.0912 9.75 79.6112 6.23C79.7512 5.23 80.0012 4.54 80.3612 4.16C80.7412 3.76 81.3312 3.56 82.1312 3.56C82.7312 3.56 83.1912 3.69 83.5112 3.95C83.8512 4.21 84.0212 4.69 84.0212 5.39C84.0212 5.53 84.0012 5.8 83.9612 6.2C83.3612 10.3 83.0612 13.79 83.0612 16.67C83.0612 19.35 83.2912 21.42 83.7512 22.88C84.2112 24.34 84.8312 25.07 85.6112 25.07C86.3112 25.07 87.1512 24.34 88.1312 22.88C89.1312 21.4 90.1212 19.22 91.1012 16.34C92.0812 13.44 92.9112 9.99 93.5912 5.99C93.7512 5.07 94.0412 4.44 94.4612 4.1C94.9012 3.74 95.4912 3.56 96.2312 3.56C96.8512 3.56 97.3012 3.7 97.5812 3.98C97.8812 4.24 98.0312 4.64 98.0312 5.18C98.0312 5.5 98.0112 5.75 97.9712 5.93C97.4112 9.19 97.1312 12.45 97.1312 15.71C97.1312 17.93 97.2012 19.7 97.3412 21.02C97.5012 22.34 97.7912 23.35 98.2112 24.05C98.6512 24.73 99.2812 25.07 100.101 25.07C101.061 25.07 102.131 24.35 103.311 22.91C104.491 21.45 105.571 19.64 106.551 17.48C105.331 16.72 104.411 15.74 103.791 14.54C103.171 13.32 102.861 11.92 102.861 10.34C102.861 8.76 103.101 7.43 103.581 6.35C104.081 5.25 104.751 4.43 105.591 3.89C106.451 3.35 107.401 3.08 108.441 3.08C109.721 3.08 110.731 3.54 111.471 4.46C112.231 5.38 112.611 6.64 112.611 8.24C112.611 10.5 112.121 13.01 111.141 15.77C112.161 15.95 113.361 16.04 114.741 16.04ZM105.891 10.13C105.891 12.09 106.521 13.54 107.781 14.48C108.561 12.24 108.951 10.39 108.951 8.93C108.951 8.09 108.841 7.48 108.621 7.1C108.401 6.7 108.101 6.5 107.721 6.5C107.181 6.5 106.741 6.82 106.401 7.46C106.061 8.08 105.891 8.97 105.891 10.13ZM115.215 29.15C114.335 29.15 113.665 28.91 113.205 28.43C112.765 27.95 112.545 27.32 112.545 26.54C112.545 25.64 112.795 24.92 113.295 24.38C113.815 23.84 114.535 23.57 115.455 23.57C116.335 23.57 116.995 23.79 117.435 24.23C117.895 24.65 118.125 25.28 118.125 26.12C118.125 27.04 117.865 27.78 117.345 28.34C116.825 28.88 116.115 29.15 115.215 29.15ZM128.65 29.15C127.49 29.15 126.18 29.05 124.72 28.85C123.92 28.75 123.37 28.54 123.07 28.22C122.77 27.9 122.64 27.38 122.68 26.66C122.82 24.68 123.15 22.24 123.67 19.34C124.19 16.42 124.82 13.61 125.56 10.91C125.7 10.41 125.98 10.06 126.4 9.86C126.82 9.66 127.37 9.56 128.05 9.56C129.27 9.56 129.88 9.9 129.88 10.58C129.88 10.86 129.82 11.18 129.7 11.54C129.18 13.14 128.66 15.29 128.14 17.99C127.62 20.67 127.25 23.23 127.03 25.67C127.63 25.73 128.31 25.76 129.07 25.76C132.57 25.76 135.18 24.7 136.9 22.58C138.64 20.46 139.51 17.63 139.51 14.09C139.51 11.71 138.83 9.87 137.47 8.57C136.11 7.27 134.19 6.62 131.71 6.62C130.11 6.62 128.52 6.87 126.94 7.37C125.38 7.87 123.97 8.53 122.71 9.35C122.45 9.53 122.17 9.62 121.87 9.62C121.53 9.62 121.26 9.48 121.06 9.2C120.86 8.9 120.76 8.54 120.76 8.12C120.76 7.64 120.84 7.25 121 6.95C121.16 6.63 121.43 6.34 121.81 6.08C123.19 5.14 124.81 4.43 126.67 3.95C128.53 3.45 130.32 3.2 132.04 3.2C134.48 3.2 136.59 3.63 138.37 4.49C140.15 5.33 141.52 6.57 142.48 8.21C143.44 9.85 143.92 11.83 143.92 14.15C143.92 17.17 143.32 19.81 142.12 22.07C140.92 24.31 139.17 26.05 136.87 27.29C134.57 28.53 131.83 29.15 128.65 29.15ZM159.308 22.31C159.568 22.31 159.768 22.43 159.908 22.67C160.068 22.91 160.148 23.24 160.148 23.66C160.148 24.46 159.958 25.08 159.578 25.52C158.838 26.42 157.788 27.25 156.428 28.01C155.088 28.77 153.648 29.15 152.108 29.15C150.008 29.15 148.378 28.58 147.218 27.44C146.058 26.3 145.478 24.74 145.478 22.76C145.478 21.38 145.768 20.1 146.348 18.92C146.928 17.72 147.728 16.77 148.748 16.07C149.788 15.37 150.958 15.02 152.258 15.02C153.418 15.02 154.348 15.37 155.048 16.07C155.748 16.75 156.098 17.68 156.098 18.86C156.098 20.24 155.598 21.43 154.598 22.43C153.618 23.41 151.948 24.19 149.588 24.77C150.088 25.69 151.038 26.15 152.438 26.15C153.338 26.15 154.358 25.84 155.498 25.22C156.658 24.58 157.658 23.75 158.498 22.73C158.738 22.45 159.008 22.31 159.308 22.31ZM151.748 17.96C151.008 17.96 150.378 18.39 149.858 19.25C149.358 20.11 149.108 21.15 149.108 22.37V22.43C150.288 22.15 151.218 21.73 151.898 21.17C152.578 20.61 152.918 19.96 152.918 19.22C152.918 18.84 152.808 18.54 152.588 18.32C152.388 18.08 152.108 17.96 151.748 17.96ZM163.286 29.81C162.246 29.81 161.446 29.57 160.886 29.09C160.346 28.61 160.076 28.07 160.076 27.47C160.076 26.95 160.266 26.5 160.646 26.12C161.026 25.74 161.586 25.55 162.326 25.55C162.586 25.55 162.886 25.58 163.226 25.64C163.586 25.68 163.856 25.71 164.036 25.73C164.016 25.21 163.896 24.72 163.676 24.26C163.476 23.8 163.216 23.36 162.896 22.94C162.576 22.5 162.276 22.12 161.996 21.8C161.376 22.98 160.756 23.96 160.136 24.74C159.536 25.52 158.876 26.26 158.156 26.96C157.796 27.32 157.416 27.5 157.016 27.5C156.696 27.5 156.436 27.39 156.236 27.17C156.036 26.93 155.936 26.64 155.936 26.3C155.936 25.9 156.076 25.53 156.356 25.19L156.746 24.71C157.846 23.35 158.676 22.23 159.236 21.35C159.576 20.77 159.976 20 160.436 19.04C160.896 18.06 161.346 17.05 161.786 16.01C162.166 15.13 162.956 14.69 164.156 14.69C164.716 14.69 165.106 14.74 165.326 14.84C165.546 14.94 165.656 15.1 165.656 15.32C165.656 15.44 165.616 15.63 165.536 15.89C165.456 16.15 165.346 16.41 165.206 16.67C164.846 17.39 164.666 18 164.666 18.5C164.666 18.8 164.766 19.13 164.966 19.49C165.186 19.85 165.516 20.3 165.956 20.84C166.596 21.68 167.076 22.4 167.396 23C167.736 23.58 167.906 24.22 167.906 24.92C167.906 25.12 167.886 25.4 167.846 25.76C168.826 25.38 169.976 24.37 171.296 22.73C171.536 22.45 171.806 22.31 172.106 22.31C172.366 22.31 172.566 22.43 172.706 22.67C172.866 22.91 172.946 23.24 172.946 23.66C172.946 24.42 172.756 25.04 172.376 25.52C171.376 26.76 170.416 27.61 169.496 28.07C168.596 28.51 167.476 28.75 166.136 28.79C165.336 29.47 164.386 29.81 163.286 29.81ZM174.438 13.04C173.598 13.04 172.968 12.85 172.548 12.47C172.128 12.07 171.918 11.52 171.918 10.82C171.918 10.12 172.188 9.54 172.728 9.08C173.288 8.6 173.978 8.36 174.798 8.36C175.538 8.36 176.138 8.54 176.598 8.9C177.058 9.26 177.288 9.77 177.288 10.43C177.288 11.23 177.028 11.87 176.508 12.35C175.988 12.81 175.298 13.04 174.438 13.04ZM174.198 29.15C172.898 29.15 171.948 28.69 171.348 27.77C170.768 26.85 170.478 25.63 170.478 24.11C170.478 23.21 170.588 22.06 170.808 20.66C171.048 19.24 171.348 17.92 171.708 16.7C171.888 16.06 172.128 15.62 172.428 15.38C172.728 15.14 173.208 15.02 173.868 15.02C174.888 15.02 175.398 15.36 175.398 16.04C175.398 16.54 175.208 17.7 174.828 19.52C174.348 21.72 174.108 23.21 174.108 23.99C174.108 24.59 174.188 25.05 174.348 25.37C174.508 25.69 174.778 25.85 175.158 25.85C175.518 25.85 175.968 25.6 176.508 25.1C177.048 24.6 177.768 23.81 178.668 22.73C178.908 22.45 179.178 22.31 179.478 22.31C179.738 22.31 179.938 22.43 180.078 22.67C180.238 22.91 180.318 23.24 180.318 23.66C180.318 24.46 180.128 25.08 179.748 25.52C177.768 27.94 175.918 29.15 174.198 29.15ZM193.251 22.37C193.511 22.37 193.711 22.5 193.851 22.76C194.011 23 194.091 23.31 194.091 23.69C194.091 24.15 194.021 24.51 193.881 24.77C193.741 25.03 193.521 25.26 193.221 25.46C191.501 26.62 190.241 27.48 189.441 28.04L187.521 29.33C186.761 33.47 185.761 36.72 184.521 39.08C183.301 41.46 181.741 42.65 179.841 42.65C178.821 42.65 177.991 42.33 177.351 41.69C176.711 41.07 176.391 40.25 176.391 39.23C176.391 37.81 176.951 36.28 178.071 34.64C179.191 33.02 181.291 31.02 184.371 28.64L184.551 27.47C184.211 28.01 183.761 28.43 183.201 28.73C182.661 29.01 182.121 29.15 181.581 29.15C180.341 29.15 179.351 28.7 178.611 27.8C177.871 26.9 177.501 25.72 177.501 24.26C177.501 22.66 177.871 21.15 178.611 19.73C179.351 18.29 180.331 17.14 181.551 16.28C182.791 15.4 184.101 14.96 185.481 14.96C185.921 14.96 186.211 15.05 186.351 15.23C186.511 15.39 186.641 15.69 186.741 16.13C187.121 16.05 187.561 16.01 188.061 16.01C188.561 16.01 188.911 16.09 189.111 16.25C189.331 16.39 189.441 16.68 189.441 17.12C189.441 17.36 189.431 17.55 189.411 17.69C189.331 18.31 189.081 19.88 188.661 22.4C188.581 22.88 188.491 23.41 188.391 23.99C188.311 24.55 188.221 25.15 188.121 25.79C189.661 24.59 191.141 23.53 192.561 22.61C192.821 22.45 193.051 22.37 193.251 22.37ZM182.661 26.12C183.121 26.12 183.561 25.84 183.981 25.28C184.401 24.72 184.701 23.92 184.881 22.88L185.841 17.75C185.021 17.77 184.261 18.09 183.561 18.71C182.861 19.31 182.301 20.11 181.881 21.11C181.461 22.11 181.251 23.17 181.251 24.29C181.251 24.91 181.371 25.37 181.611 25.67C181.871 25.97 182.221 26.12 182.661 26.12ZM180.171 39.74C180.671 39.74 181.231 39.14 181.851 37.94C182.491 36.74 183.101 34.83 183.681 32.21C182.141 33.53 181.031 34.72 180.351 35.78C179.671 36.84 179.331 37.77 179.331 38.57C179.331 38.91 179.391 39.19 179.511 39.41C179.651 39.63 179.871 39.74 180.171 39.74ZM194.054 29.15C193.294 29.15 192.754 28.75 192.434 27.95C192.134 27.15 191.984 25.87 191.984 24.11C191.984 21.51 192.354 19.04 193.094 16.7C193.274 16.12 193.564 15.7 193.964 15.44C194.384 15.16 194.964 15.02 195.704 15.02C196.104 15.02 196.384 15.07 196.544 15.17C196.704 15.27 196.784 15.46 196.784 15.74C196.784 16.06 196.634 16.78 196.334 17.9C196.134 18.7 195.974 19.4 195.854 20C195.734 20.6 195.634 21.34 195.554 22.22C196.214 20.5 196.954 19.1 197.774 18.02C198.594 16.94 199.394 16.17 200.174 15.71C200.974 15.25 201.704 15.02 202.364 15.02C203.004 15.02 203.484 15.19 203.804 15.53C204.144 15.85 204.314 16.33 204.314 16.97C204.314 17.49 204.204 18.47 203.984 19.91C203.784 21.13 203.624 22.29 203.504 23.39C203.384 24.47 203.324 25.68 203.324 27.02C203.324 27.78 203.164 28.33 202.844 28.67C202.544 28.99 202.044 29.15 201.344 29.15C200.684 29.15 200.204 28.98 199.904 28.64C199.604 28.3 199.454 27.79 199.454 27.11C199.454 26.31 199.594 24.99 199.874 23.15C200.114 21.55 200.234 20.53 200.234 20.09C200.234 19.77 200.124 19.61 199.904 19.61C199.644 19.61 199.274 19.95 198.794 20.63C198.334 21.29 197.854 22.17 197.354 23.27C196.874 24.37 196.484 25.53 196.184 26.75C195.964 27.69 195.704 28.33 195.404 28.67C195.124 28.99 194.674 29.15 194.054 29.15Z" fill="#3B3B3B"/>
</svg>
