<svg width="20" height="14" viewBox="0 0 20 14" fill="none" xmlns="http://www.w3.org/2000/svg">
<path d="M1.875 0C0.846354 0 0.00488292 0.760258 0 1.69143C0 1.69143 0 1.6929 0 1.69437C0 1.69585 0 1.69585 0 1.69732V11.8812C0 12.8139 0.844727 13.5786 1.875 13.5786H18.125C19.1553 13.5786 20 12.8139 20 11.8812V1.69732C20 1.69585 20 1.69585 20 1.69437C20 1.6929 20 1.69143 20 1.69143C19.9951 0.760258 19.1536 0 18.125 0H1.875ZM2.95898 0.754365H17.0426L10 5.19804L2.95898 0.754365ZM1.57227 0.798566L10 6.11743L18.4294 0.798566C18.8558 0.914962 19.1634 1.26562 19.1667 1.6929C19.165 1.77246 19.0755 1.93159 18.9453 2.05977C18.8135 2.18943 18.6849 2.27046 18.6849 2.27046L18.6833 2.27341L10 7.83685L1.31673 2.27341L1.3151 2.27046C1.3151 2.27046 1.18652 2.18943 1.05469 2.05977C0.924479 1.93159 0.834961 1.77246 0.833333 1.6929C0.836589 1.26562 1.14421 0.914962 1.57227 0.798566ZM0.833333 2.88633L0.836589 2.88928L0.839844 2.89075V2.89222L2.08333 3.68784V12.8242H1.875C1.29557 12.8242 0.833333 12.4058 0.833333 11.8812V2.88633ZM19.1667 2.88633V11.8812C19.1667 12.4058 18.7044 12.8242 18.125 12.8242H17.9167V3.68784L19.1602 2.89222V2.89075L19.1667 2.88633ZM2.91667 4.2212L10 8.75918L17.0833 4.2212V12.8242H2.91667V4.2212Z" fill="url(#paint0_linear_443_99)"/>
<defs>
<linearGradient id="paint0_linear_443_99" x1="1.375" y1="2.03678" x2="12.4592" y2="19.162" gradientUnits="userSpaceOnUse">
<stop stop-color="#23C16B"/>
<stop offset="1" stop-color="#0C3825"/>
</linearGradient>
</defs>
</svg>
