<svg width="80" height="60" viewBox="0 0 80 60" fill="none" xmlns="http://www.w3.org/2000/svg">
<path d="M7.5 0C3.38542 0 0.0195317 3.35938 0 7.47396C0 7.47396 0 7.48047 0 7.48698C0 7.49349 0 7.49349 0 7.5V52.5C0 56.6211 3.37891 60 7.5 60H72.5C76.6211 60 80 56.6211 80 52.5V7.5C80 7.49349 80 7.49349 80 7.48698C80 7.48047 80 7.47396 80 7.47396C79.9805 3.35938 76.6146 0 72.5 0H7.5ZM11.8359 3.33333H68.1706L40 22.9688L11.8359 3.33333ZM6.28906 3.52865L40 27.0312L73.7174 3.52865C75.4232 4.04297 76.6536 5.59245 76.6667 7.48047C76.6602 7.83203 76.3021 8.53516 75.7812 9.10156C75.2539 9.67448 74.7396 10.0326 74.7396 10.0326L74.7331 10.0456L40 34.6289L5.26693 10.0456L5.26042 10.0326C5.26042 10.0326 4.74609 9.67448 4.21875 9.10156C3.69792 8.53516 3.33984 7.83203 3.33333 7.48047C3.34635 5.59245 4.57682 4.04297 6.28906 3.52865ZM3.33333 12.7539L3.34635 12.7669L3.35938 12.7734V12.7799L8.33333 16.2956V56.6667H7.5C5.18229 56.6667 3.33333 54.8177 3.33333 52.5V12.7539ZM76.6667 12.7539V52.5C76.6667 54.8177 74.8177 56.6667 72.5 56.6667H71.6667V16.2956L76.6406 12.7799V12.7734L76.6667 12.7539ZM11.6667 18.6523L40 38.7044L68.3333 18.6523V56.6667H11.6667V18.6523Z" fill="url(#paint0_linear_76_68)"/>
<defs>
<linearGradient id="paint0_linear_76_68" x1="5.5" y1="9" x2="56.3007" y2="80.05" gradientUnits="userSpaceOnUse">
<stop stop-color="#23C16B"/>
<stop offset="1" stop-color="#0C3825"/>
</linearGradient>
</defs>
</svg>
