<svg width="39" height="38" viewBox="0 0 39 38" fill="none" xmlns="http://www.w3.org/2000/svg">
<path d="M17.0485 1.37906C18.5707 0.52278 20.4293 0.522781 21.9515 1.37906L33.839 8.06633C35.4133 8.95194 36.3875 10.6178 36.3875 12.4241V25.5759C36.3875 27.3822 35.4133 29.0481 33.839 29.9337L21.9515 36.6209C20.4293 37.4772 18.5707 37.4772 17.0485 36.6209L5.16104 29.9337C3.58675 29.0481 2.6125 27.3822 2.6125 25.5759V12.4241C2.6125 10.6178 3.58675 8.95194 5.16105 8.06633L17.0485 1.37906Z" fill="url(#paint0_linear_76_207)"/>
<path d="M19.5 8C13.1501 8 8 13.2793 8 19.7907C8 25.0003 11.2947 29.4198 15.865 30.9791C16.4391 31.0882 16.625 30.7227 16.625 30.4122V28.2172C13.4261 28.9305 12.76 26.8259 12.76 26.8259C12.2368 25.463 11.4826 25.1005 11.4826 25.1005C10.439 24.3685 11.5621 24.3842 11.5621 24.3842C12.7169 24.4667 13.3245 25.5996 13.3245 25.5996C14.3499 27.4016 16.0145 26.8809 16.671 26.5792C16.7735 25.8177 17.0716 25.297 17.4012 25.0032C14.8473 24.7035 12.162 23.6925 12.162 19.1756C12.162 17.8875 12.6115 16.8362 13.3465 16.0108C13.2277 15.7131 12.8338 14.5134 13.4587 12.8902C13.4587 12.8902 14.4247 12.5738 16.6221 14.0988C17.5392 13.8374 18.5225 13.7067 19.5 13.7018C20.4775 13.7067 21.4617 13.8374 22.3807 14.0988C24.5763 12.5738 25.5404 12.8902 25.5404 12.8902C26.1662 14.5144 25.7723 15.7141 25.6535 16.0108C26.3914 16.8362 26.837 17.8885 26.837 19.1756C26.837 23.7043 24.147 24.7016 21.5863 24.9934C21.9984 25.3589 22.375 26.0762 22.375 27.1766V30.4122C22.375 30.7256 22.559 31.0941 23.1426 30.9782C27.7091 29.4169 31 24.9983 31 19.7907C31 13.2793 25.8509 8 19.5 8Z" fill="#222222"/>
<defs>
<linearGradient id="paint0_linear_76_207" x1="2.68125" y1="5.7" x2="36.5902" y2="42.2049" gradientUnits="userSpaceOnUse">
<stop stop-color="#23C16B"/>
<stop offset="1" stop-color="#0C3825"/>
</linearGradient>
</defs>
</svg>
