<svg width="39" height="38" viewBox="0 0 39 38" fill="none" xmlns="http://www.w3.org/2000/svg">
<path d="M17.0485 1.37906C18.5707 0.52278 20.4293 0.522781 21.9515 1.37906L33.839 8.06633C35.4133 8.95194 36.3875 10.6178 36.3875 12.4241V25.5759C36.3875 27.3822 35.4133 29.0481 33.839 29.9337L21.9515 36.6209C20.4293 37.4772 18.5707 37.4772 17.0485 36.6209L5.16104 29.9337C3.58675 29.0481 2.6125 27.3822 2.6125 25.5759V12.4241C2.6125 10.6178 3.58675 8.95194 5.16105 8.06633L17.0485 1.37906Z" fill="url(#paint0_linear_76_93)"/>
<path d="M19.5 7C13.1501 7 8 12.2793 8 18.7907C8 24.0003 11.2947 28.4198 15.865 29.9791C16.4391 30.0882 16.625 29.7227 16.625 29.4122V27.2172C13.4261 27.9305 12.76 25.8259 12.76 25.8259C12.2368 24.463 11.4826 24.1005 11.4826 24.1005C10.439 23.3685 11.5621 23.3842 11.5621 23.3842C12.7169 23.4667 13.3245 24.5996 13.3245 24.5996C14.3499 26.4016 16.0145 25.8809 16.671 25.5792C16.7735 24.8177 17.0716 24.297 17.4012 24.0032C14.8473 23.7035 12.162 22.6925 12.162 18.1756C12.162 16.8875 12.6115 15.8362 13.3465 15.0108C13.2277 14.7131 12.8338 13.5134 13.4587 11.8902C13.4587 11.8902 14.4247 11.5738 16.6221 13.0988C17.5392 12.8374 18.5225 12.7067 19.5 12.7018C20.4775 12.7067 21.4617 12.8374 22.3807 13.0988C24.5763 11.5738 25.5404 11.8902 25.5404 11.8902C26.1662 13.5144 25.7723 14.7141 25.6535 15.0108C26.3914 15.8362 26.837 16.8885 26.837 18.1756C26.837 22.7043 24.147 23.7016 21.5863 23.9934C21.9984 24.3589 22.375 25.0762 22.375 26.1766V29.4122C22.375 29.7256 22.559 30.0941 23.1426 29.9782C27.7091 28.4169 31 23.9983 31 18.7907C31 12.2793 25.8509 7 19.5 7Z" fill="#222222"/>
<defs>
<linearGradient id="paint0_linear_76_93" x1="2.68125" y1="5.7" x2="36.5902" y2="42.2049" gradientUnits="userSpaceOnUse">
<stop stop-color="#23C16B"/>
<stop offset="1" stop-color="#0C3825"/>
</linearGradient>
</defs>
</svg>
