<svg width="213" height="32" viewBox="0 0 213 32" fill="none" xmlns="http://www.w3.org/2000/svg">
<path d="M0.0800003 31V1.56H3.28V15.2H18V1.56H21.16V31H18V18.08H3.28V31H0.0800003ZM35.4656 31.24C33.2256 31.24 31.4523 30.9067 30.1456 30.24C28.8656 29.5733 27.9456 28.44 27.3856 26.84C26.8256 25.24 26.5456 23.0533 26.5456 20.28C26.5456 17.4533 26.8256 15.2533 27.3856 13.68C27.9723 12.08 28.919 10.96 30.2256 10.32C31.5323 9.68 33.2923 9.36 35.5056 9.36C37.399 9.36 38.9323 9.57333 40.1056 10C41.3056 10.4267 42.1856 11.16 42.7456 12.2C43.3323 13.2133 43.6256 14.6267 43.6256 16.44C43.6256 17.6933 43.3723 18.7067 42.8656 19.48C42.3856 20.2267 41.679 20.7733 40.7456 21.12C39.839 21.44 38.759 21.6 37.5056 21.6H29.7056C29.7323 23.3333 29.919 24.7333 30.2656 25.8C30.6123 26.84 31.239 27.6 32.1456 28.08C33.079 28.5333 34.439 28.76 36.2256 28.76H43.1056V30.68C41.879 30.84 40.679 30.9733 39.5056 31.08C38.3323 31.1867 36.9856 31.24 35.4656 31.24ZM29.6656 19.52H37.2656C38.4656 19.52 39.3456 19.3067 39.9056 18.88C40.4923 18.4267 40.7856 17.6267 40.7856 16.48C40.7856 15.2533 40.599 14.3067 40.2256 13.64C39.879 12.9467 39.319 12.4667 38.5456 12.2C37.799 11.9067 36.7856 11.76 35.5056 11.76C34.0123 11.76 32.839 11.9867 31.9856 12.44C31.1323 12.8667 30.5323 13.64 30.1856 14.76C29.839 15.88 29.6656 17.4667 29.6656 19.52ZM54.5463 31.04C53.3196 31.04 52.2929 30.8267 51.4663 30.4C50.6396 29.9467 50.0129 29.2267 49.5863 28.24C49.1596 27.2267 48.9463 25.8667 48.9463 24.16V0.48H52.1063V23.76C52.1063 25.04 52.2263 26.0133 52.4663 26.68C52.7063 27.32 53.0529 27.7733 53.5063 28.04C53.9596 28.28 54.4929 28.44 55.1063 28.52L57.2663 28.76V31.04H54.5463ZM66.3041 31.04C65.0774 31.04 64.0507 30.8267 63.2241 30.4C62.3974 29.9467 61.7707 29.2267 61.3441 28.24C60.9174 27.2267 60.7041 25.8667 60.7041 24.16V0.48H63.8641V23.76C63.8641 25.04 63.9841 26.0133 64.2241 26.68C64.4641 27.32 64.8107 27.7733 65.2641 28.04C65.7174 28.28 66.2507 28.44 66.8641 28.52L69.0241 28.76V31.04H66.3041ZM80.9419 31.24C79.3952 31.24 78.0352 31.08 76.8619 30.76C75.7152 30.44 74.7552 29.88 73.9819 29.08C73.2085 28.28 72.6352 27.1733 72.2619 25.76C71.8885 24.32 71.7019 22.4933 71.7019 20.28C71.7019 18.04 71.8885 16.2133 72.2619 14.8C72.6352 13.36 73.2085 12.2533 73.9819 11.48C74.7552 10.68 75.7152 10.1333 76.8619 9.84C78.0352 9.52 79.3952 9.36 80.9419 9.36C82.4885 9.36 83.8352 9.52 84.9819 9.84C86.1552 10.16 87.1285 10.72 87.9019 11.52C88.6752 12.2933 89.2485 13.4 89.6219 14.84C90.0219 16.2533 90.2219 18.0667 90.2219 20.28C90.2219 22.52 90.0219 24.36 89.6219 25.8C89.2485 27.2133 88.6752 28.32 87.9019 29.12C87.1552 29.8933 86.1952 30.44 85.0219 30.76C83.8485 31.08 82.4885 31.24 80.9419 31.24ZM80.9419 28.64C81.9285 28.64 82.7952 28.5467 83.5419 28.36C84.3152 28.1733 84.9552 27.8 85.4619 27.24C85.9685 26.68 86.3552 25.84 86.6219 24.72C86.8885 23.6 87.0219 22.12 87.0219 20.28C87.0219 18.4133 86.8885 16.9333 86.6219 15.84C86.3552 14.7467 85.9685 13.92 85.4619 13.36C84.9552 12.8 84.3152 12.4267 83.5419 12.24C82.7952 12.0533 81.9285 11.96 80.9419 11.96C79.9285 11.96 79.0485 12.0533 78.3019 12.24C77.5552 12.4267 76.9285 12.8 76.4219 13.36C75.9152 13.92 75.5285 14.7467 75.2619 15.84C74.9952 16.9333 74.8619 18.4133 74.8619 20.28C74.8619 22.12 74.9952 23.6 75.2619 24.72C75.5285 25.84 75.9152 26.68 76.4219 27.24C76.9285 27.8 77.5552 28.1733 78.3019 28.36C79.0485 28.5467 79.9285 28.64 80.9419 28.64ZM112.209 31L104.649 1.56H107.929L114.249 26.64L121.529 1.56H124.729L131.969 26.64L138.289 1.56H141.569L134.009 31H130.569L123.129 6L115.649 31H112.209ZM152.856 31.24C151.309 31.24 149.949 31.08 148.776 30.76C147.629 30.44 146.669 29.88 145.896 29.08C145.123 28.28 144.549 27.1733 144.176 25.76C143.803 24.32 143.616 22.4933 143.616 20.28C143.616 18.04 143.803 16.2133 144.176 14.8C144.549 13.36 145.123 12.2533 145.896 11.48C146.669 10.68 147.629 10.1333 148.776 9.84C149.949 9.52 151.309 9.36 152.856 9.36C154.403 9.36 155.749 9.52 156.896 9.84C158.069 10.16 159.043 10.72 159.816 11.52C160.589 12.2933 161.163 13.4 161.536 14.84C161.936 16.2533 162.136 18.0667 162.136 20.28C162.136 22.52 161.936 24.36 161.536 25.8C161.163 27.2133 160.589 28.32 159.816 29.12C159.069 29.8933 158.109 30.44 156.936 30.76C155.763 31.08 154.403 31.24 152.856 31.24ZM152.856 28.64C153.843 28.64 154.709 28.5467 155.456 28.36C156.229 28.1733 156.869 27.8 157.376 27.24C157.883 26.68 158.269 25.84 158.536 24.72C158.803 23.6 158.936 22.12 158.936 20.28C158.936 18.4133 158.803 16.9333 158.536 15.84C158.269 14.7467 157.883 13.92 157.376 13.36C156.869 12.8 156.229 12.4267 155.456 12.24C154.709 12.0533 153.843 11.96 152.856 11.96C151.843 11.96 150.963 12.0533 150.216 12.24C149.469 12.4267 148.843 12.8 148.336 13.36C147.829 13.92 147.443 14.7467 147.176 15.84C146.909 16.9333 146.776 18.4133 146.776 20.28C146.776 22.12 146.909 23.6 147.176 24.72C147.443 25.84 147.829 26.68 148.336 27.24C148.843 27.8 149.469 28.1733 150.216 28.36C150.963 28.5467 151.843 28.64 152.856 28.64ZM167.462 31V9.64H169.862L170.622 13.36C171.582 12.2133 172.649 11.2667 173.822 10.52C175.022 9.77333 176.395 9.4 177.942 9.4C178.315 9.4 178.662 9.41333 178.982 9.44C179.329 9.46666 179.649 9.52 179.942 9.6V12.84C179.595 12.7867 179.222 12.7467 178.822 12.72C178.422 12.6667 178.022 12.64 177.622 12.64C176.635 12.64 175.755 12.76 174.982 13C174.209 13.24 173.475 13.6 172.782 14.08C172.089 14.56 171.369 15.1467 170.622 15.84V31H167.462ZM189.546 31.04C188.32 31.04 187.293 30.8267 186.466 30.4C185.64 29.9467 185.013 29.2267 184.586 28.24C184.16 27.2267 183.946 25.8667 183.946 24.16V0.48H187.106V23.76C187.106 25.04 187.226 26.0133 187.466 26.68C187.706 27.32 188.053 27.7733 188.506 28.04C188.96 28.28 189.493 28.44 190.106 28.52L192.266 28.76V31.04H189.546ZM202.624 31.24C200.864 31.24 199.411 30.8667 198.264 30.12C197.144 29.3467 196.304 28.1733 195.744 26.6C195.211 25 194.944 22.96 194.944 20.48C194.944 17.84 195.211 15.7067 195.744 14.08C196.277 12.4267 197.131 11.2267 198.304 10.48C199.477 9.73333 201.051 9.36 203.024 9.36C204.224 9.36 205.397 9.49333 206.544 9.76C207.691 10.0267 208.704 10.32 209.584 10.64V0.48H212.744V31H210.184L209.584 28.84C209.184 29.1867 208.584 29.5467 207.784 29.92C207.011 30.2933 206.157 30.6133 205.224 30.88C204.317 31.12 203.451 31.24 202.624 31.24ZM203.544 28.64C204.771 28.64 205.877 28.4533 206.864 28.08C207.877 27.68 208.784 27.2667 209.584 26.84V12.88C208.624 12.5867 207.704 12.3467 206.824 12.16C205.944 11.9467 204.957 11.84 203.864 11.84C202.504 11.84 201.397 12.0933 200.544 12.6C199.691 13.1067 199.064 13.9867 198.664 15.24C198.291 16.4667 198.104 18.1733 198.104 20.36C198.104 22.3333 198.277 23.9333 198.624 25.16C198.997 26.3867 199.584 27.28 200.384 27.84C201.184 28.3733 202.237 28.64 203.544 28.64Z" fill="#23C16B"/>
</svg>
