<svg width="20" height="19" viewBox="0 0 20 19" fill="none" xmlns="http://www.w3.org/2000/svg">
<path d="M9.99998 1.63109C12.6701 1.63109 12.9864 1.64029 14.0408 1.68384C15.0158 1.72412 15.5453 1.87159 15.8977 1.99553C16.3644 2.15974 16.6976 2.35594 17.0475 2.6727C17.3974 2.98945 17.6142 3.29104 17.7955 3.71354C17.9325 4.03256 18.0954 4.51188 18.1399 5.39444C18.188 6.34901 18.1982 6.63529 18.1982 9.05239C18.1982 11.4695 18.188 11.7558 18.1399 12.7103C18.0954 13.5929 17.9325 14.0722 17.7955 14.3912C17.6142 14.8137 17.3974 15.1153 17.0475 15.4321C16.6976 15.7488 16.3644 15.945 15.8977 16.1092C15.5453 16.2332 15.0158 16.3807 14.0408 16.4209C12.9865 16.4645 12.6703 16.4737 9.99998 16.4737C7.32969 16.4737 7.01344 16.4645 5.95914 16.4209C4.98415 16.3807 4.45466 16.2332 4.10229 16.1092C3.63551 15.945 3.30235 15.7488 2.95244 15.4321C2.60253 15.1153 2.38579 14.8137 2.20443 14.3912C2.06748 14.0722 1.90457 13.5929 1.86007 12.7103C1.81196 11.7558 1.8018 11.4695 1.8018 9.05239C1.8018 6.63529 1.81196 6.34901 1.86007 5.39447C1.90457 4.51188 2.06748 4.03256 2.20443 3.71354C2.38579 3.29104 2.60253 2.98945 2.95244 2.6727C3.30235 2.35594 3.63551 2.15974 4.10229 1.99553C4.45466 1.87159 4.98415 1.72412 5.9591 1.68384C7.0136 1.64029 7.32985 1.63109 9.99998 1.63109ZM9.99998 0C7.28412 0 6.94362 0.0104207 5.87701 0.0544751C4.81259 0.0984577 4.08569 0.251462 3.44958 0.475256C2.79199 0.706596 2.23432 1.01613 1.67839 1.51937C1.12246 2.02262 0.780524 2.52745 0.524967 3.12273C0.277746 3.69856 0.108725 4.35657 0.060138 5.32013C0.0114719 6.28562 0 6.5939 0 9.05239C0 11.5109 0.0114719 11.8192 0.060138 12.7847C0.108725 13.7482 0.277746 14.4062 0.524967 14.9821C0.780524 15.5773 1.12246 16.0822 1.67839 16.5854C2.23432 17.0887 2.79199 17.3982 3.44958 17.6295C4.08569 17.8533 4.81259 18.0063 5.87701 18.0503C6.94362 18.0944 7.28412 18.1048 9.99998 18.1048C12.7158 18.1048 13.0564 18.0944 14.1229 18.0503C15.1874 18.0063 15.9143 17.8533 16.5504 17.6295C17.208 17.3982 17.7656 17.0887 18.3216 16.5854C18.8775 16.0822 19.2194 15.5773 19.475 14.9821C19.7222 14.4062 19.8912 13.7482 19.9398 12.7847C19.9885 11.8192 20 11.5109 20 9.05239C20 6.5939 19.9885 6.28562 19.9398 5.32013C19.8912 4.35657 19.7222 3.69856 19.475 3.12273C19.2194 2.52745 18.8775 2.02262 18.3216 1.51937C17.7656 1.01613 17.208 0.706596 16.5504 0.475256C15.9143 0.251462 15.1874 0.0984577 14.1229 0.0544751C13.0564 0.0104207 12.7158 0 9.99998 0ZM9.99998 4.40386C7.16393 4.40386 4.86483 6.48509 4.86483 9.05239C4.86483 11.6197 7.16393 13.7009 9.99998 13.7009C12.836 13.7009 15.1351 11.6197 15.1351 9.05239C15.1351 6.48509 12.836 4.40386 9.99998 4.40386ZM9.99998 12.0699C8.15904 12.0699 6.66663 10.7189 6.66663 9.05239C6.66663 7.38591 8.15904 6.03492 9.99998 6.03492C11.8409 6.03492 13.3333 7.38591 13.3333 9.05239C13.3333 10.7189 11.8409 12.0699 9.99998 12.0699ZM16.538 4.22021C16.538 4.82015 16.0008 5.30651 15.338 5.30651C14.6753 5.30651 14.138 4.82015 14.138 4.22021C14.138 3.62026 14.6753 3.13394 15.338 3.13394C16.0008 3.13394 16.538 3.62026 16.538 4.22021Z" fill="url(#paint0_linear_443_98)"/>
<defs>
<linearGradient id="paint0_linear_443_98" x1="1.375" y1="2.71571" x2="17.4003" y2="21.2852" gradientUnits="userSpaceOnUse">
<stop stop-color="#23C16B"/>
<stop offset="1" stop-color="#0C3825"/>
</linearGradient>
</defs>
</svg>
