<svg width="80" height="80" viewBox="0 0 80 80" fill="none" xmlns="http://www.w3.org/2000/svg">
<path d="M39.9999 7.20735C50.6804 7.20735 51.9454 7.248 56.1633 7.44044C60.0632 7.61844 62.1812 8.27007 63.5909 8.8177C65.4578 9.54333 66.7904 10.4103 68.1901 11.8099C69.5897 13.2096 70.4567 14.5422 71.1821 16.4091C71.7299 17.8188 72.3816 19.9368 72.5596 23.8366C72.752 28.0546 72.7926 29.3196 72.7926 40.0001C72.7926 50.6806 72.752 51.9456 72.5596 56.1634C72.3816 60.0634 71.7299 62.1814 71.1821 63.591C70.4567 65.458 69.5897 66.7906 68.1901 68.1902C66.7904 69.5899 65.4578 70.4568 63.5909 71.1823C62.1812 71.7301 60.0632 72.3817 56.1633 72.5597C51.9461 72.7522 50.6811 72.7928 39.9999 72.7928C29.3188 72.7928 28.0538 72.7522 23.8366 72.5597C19.9366 72.3817 17.8186 71.7301 16.4091 71.1823C14.542 70.4568 13.2094 69.5899 11.8098 68.1902C10.4101 66.7906 9.54317 65.458 8.8177 63.591C8.26991 62.1814 7.61828 60.0634 7.44028 56.1636C7.24784 51.9456 7.2072 50.6806 7.2072 40.0001C7.2072 29.3196 7.24784 28.0546 7.44028 23.8367C7.61828 19.9368 8.26991 17.8188 8.8177 16.4091C9.54317 14.5422 10.4101 13.2096 11.8098 11.8099C13.2094 10.4103 14.542 9.54333 16.4091 8.8177C17.8186 8.27007 19.9366 7.61844 23.8364 7.44044C28.0544 7.248 29.3194 7.20735 39.9999 7.20735ZM39.9999 0C29.1365 0 27.7745 0.0460463 23.5081 0.240711C19.2504 0.435058 16.3428 1.11114 13.7983 2.10003C11.168 3.12226 8.93726 4.48999 6.71355 6.71371C4.48983 8.93742 3.1221 11.1681 2.09987 13.7985C1.11099 16.3429 0.434899 19.2505 0.240552 23.5082C0.0458875 27.7745 0 29.1367 0 40.0001C0 50.8635 0.0458875 52.2257 0.240552 56.492C0.434899 60.7496 1.11099 63.6572 2.09987 66.2017C3.1221 68.8319 4.48983 71.0627 6.71355 73.2865C8.93726 75.5102 11.168 76.8779 13.7983 77.9001C16.3428 78.889 19.2504 79.5651 23.5081 79.7595C27.7745 79.9541 29.1365 80 39.9999 80C50.8634 80 52.2255 79.9541 56.4918 79.7595C60.7495 79.5651 63.6571 78.889 66.2015 77.9001C68.8319 76.8779 71.0626 75.5102 73.2863 73.2865C75.51 71.0627 76.8778 68.832 77.9 66.2017C78.8889 63.6572 79.5649 60.7496 79.7593 56.492C79.954 52.2257 80 50.8635 80 40.0001C80 29.1367 79.954 27.7745 79.7593 23.5082C79.5649 19.2505 78.8889 16.3429 77.9 13.7985C76.8778 11.1681 75.51 8.93742 73.2863 6.71371C71.0626 4.48999 68.8319 3.12226 66.2015 2.10003C63.6571 1.11114 60.7495 0.435058 56.4918 0.240711C52.2255 0.0460463 50.8634 0 39.9999 0ZM39.9999 19.4595C28.6557 19.4595 19.4593 28.6559 19.4593 40.0001C19.4593 51.3443 28.6557 60.5407 39.9999 60.5407C51.3441 60.5407 60.5405 51.3443 60.5405 40.0001C60.5405 28.6559 51.3441 19.4595 39.9999 19.4595ZM39.9999 53.3335C32.6362 53.3335 26.6665 47.3638 26.6665 40.0001C26.6665 32.6363 32.6362 26.6667 39.9999 26.6667C47.3637 26.6667 53.3333 32.6363 53.3333 40.0001C53.3333 47.3638 47.3637 53.3335 39.9999 53.3335ZM66.152 18.6479C66.152 21.2989 64.003 23.448 61.3521 23.448C58.7011 23.448 56.552 21.2989 56.552 18.6479C56.552 15.997 58.7011 13.848 61.3521 13.848C64.003 13.848 66.152 15.997 66.152 18.6479Z" fill="url(#paint0_linear_76_67)"/>
<defs>
<linearGradient id="paint0_linear_76_67" x1="5.5" y1="12" x2="77" y2="87" gradientUnits="userSpaceOnUse">
<stop stop-color="#23C16B"/>
<stop offset="1" stop-color="#0C3825"/>
</linearGradient>
</defs>
</svg>
