<svg width="39" height="38" viewBox="0 0 39 38" fill="none" xmlns="http://www.w3.org/2000/svg">
<path d="M17.0485 1.37906C18.5707 0.52278 20.4293 0.522782 21.9515 1.37906L33.839 8.06633C35.4133 8.95194 36.3875 10.6178 36.3875 12.4241V25.5759C36.3875 27.3822 35.4133 29.0481 33.839 29.9337L21.9515 36.6209C20.4293 37.4772 18.5707 37.4772 17.0485 36.6209L5.16104 29.9337C3.58675 29.0481 2.6125 27.3822 2.6125 25.5759V12.4241C2.6125 10.6178 3.58675 8.95194 5.16104 8.06633L17.0485 1.37906Z" fill="url(#paint0_linear_306_2)"/>
<path d="M25.625 8H13.375C10.9591 8 9 10.0524 9 12.5833V25.4167C9 27.9476 10.9591 30 13.375 30H25.625C28.0417 30 30 27.9476 30 25.4167V12.5833C30 10.0524 28.0417 8 25.625 8ZM16 25.4167H13.375V15.3333H16V25.4167ZM14.6875 14.171C13.8422 14.171 13.1562 13.4468 13.1562 12.554C13.1562 11.6612 13.8422 10.937 14.6875 10.937C15.5328 10.937 16.2188 11.6612 16.2188 12.554C16.2188 13.4468 15.5336 14.171 14.6875 14.171ZM26.5 25.4167H23.875V20.2797C23.875 17.1923 20.375 17.4261 20.375 20.2797V25.4167H17.75V15.3333H20.375V16.9513C21.5965 14.5808 26.5 14.4057 26.5 19.2209V25.4167Z" fill="#222222"/>
<defs>
<linearGradient id="paint0_linear_306_2" x1="2.68125" y1="5.7" x2="36.5902" y2="42.2049" gradientUnits="userSpaceOnUse">
<stop stop-color="#23C16B"/>
<stop offset="1" stop-color="#0C3825"/>
</linearGradient>
</defs>
</svg>
