<svg width="40" height="40" viewBox="0 0 40 40" fill="none" xmlns="http://www.w3.org/2000/svg">
<path d="M5.40752 10.1296C6.45319 9.3987 8.02947 9.53887 8.96834 10.3142L7.89153 8.74905C7.02496 7.51317 7.33532 6.17605 8.57232 5.30837C9.80932 4.44403 13.3145 6.76785 13.3145 6.76785C12.4402 5.51973 12.6037 3.93788 13.8518 3.06242C14.4519 2.64313 15.1939 2.4792 15.9147 2.60664C16.6356 2.73409 17.2764 3.14248 17.6963 3.7421L29.2876 20.1168L27.8103 34.4391L15.4815 29.9427L4.72784 13.9985C4.51815 13.6999 4.36938 13.363 4.29004 13.0068C4.21071 12.6507 4.20237 12.2825 4.26549 11.9231C4.32862 11.5638 4.46198 11.2204 4.65794 10.9126C4.8539 10.6049 5.10862 10.3388 5.40752 10.1296Z" fill="#EF9645"/>
<path d="M2.99777 19.2382C2.99777 19.2382 1.73853 17.4027 3.57511 16.1446C5.40948 14.8865 6.66761 16.7208 6.66761 16.7208L12.5089 25.2397C12.7102 24.9037 12.9305 24.5722 13.1763 24.2452L5.06908 12.4236C5.06908 12.4236 3.81095 10.5892 5.64642 9.33109C7.48078 8.07296 8.73891 9.90732 8.73891 9.90732L16.3645 21.0281C16.6481 20.7967 16.9385 20.5642 17.2377 20.3362L8.3974 7.44222C8.3974 7.44222 7.13927 5.60786 8.97474 4.34972C10.8091 3.09158 12.0672 4.92595 12.0672 4.92595L20.9075 17.8177C21.2324 17.6185 21.5539 17.4461 21.8765 17.2637L13.6135 5.21406C13.6135 5.21406 12.3554 3.3797 14.1897 2.12156C16.0241 0.863428 17.2822 2.69779 17.2822 2.69779L26.0191 15.4393L27.3473 17.3771C21.8431 21.1527 21.3191 28.2554 24.4639 32.8419C25.0924 33.7596 26.0102 33.1311 26.0102 33.1311C22.2358 27.6258 23.3882 21.4397 28.8935 17.6653L27.2705 9.54245C27.2705 9.54245 26.6643 7.40217 28.8034 6.7948C30.9437 6.18853 31.5511 8.32881 31.5511 8.32881L33.4255 13.8953C34.1686 16.1023 34.9595 18.3016 36.0063 20.3818C38.9619 26.2553 37.1965 33.5549 31.6234 37.3783C25.5441 41.5465 17.2333 39.9969 13.064 33.9187L2.99777 19.2382Z" fill="#FFDC5D"/>
<path d="M13.349 35.5975C8.89939 35.5975 4.40304 31.1011 4.40304 26.6515C4.40304 26.0363 3.95251 25.5391 3.33735 25.5391C2.72219 25.5391 2.17822 26.0363 2.17822 26.6515C2.17822 33.3259 6.67458 37.8223 13.349 37.8223C13.9642 37.8223 14.4614 37.2783 14.4614 36.6632C14.4614 36.048 13.9642 35.5975 13.349 35.5975Z" fill="#5DADEC"/>
<path d="M7.78686 37.7748C4.44963 37.7748 2.22482 35.55 2.22482 32.2128C2.22482 31.9178 2.10762 31.6348 1.899 31.4262C1.69038 31.2176 1.40744 31.1004 1.11241 31.1004C0.817379 31.1004 0.534434 31.2176 0.325817 31.4262C0.1172 31.6348 0 31.9178 0 32.2128C0 36.6624 3.33723 39.9997 7.78686 39.9997C8.08189 39.9997 8.36483 39.8825 8.57345 39.6739C8.78207 39.4652 8.89927 39.1823 8.89927 38.8873C8.89927 38.5922 8.78207 38.3093 8.57345 38.1007C8.36483 37.892 8.08189 37.7748 7.78686 37.7748ZM26.6978 2.17773C26.4028 2.17773 26.1198 2.29493 25.9112 2.50355C25.7026 2.71217 25.5854 2.99511 25.5854 3.29014C25.5854 3.58517 25.7026 3.86812 25.9112 4.07674C26.1198 4.28535 26.4028 4.40255 26.6978 4.40255C31.1474 4.40255 35.5971 8.39499 35.5971 13.3018C35.5971 13.5969 35.7143 13.8798 35.9229 14.0884C36.1315 14.297 36.4144 14.4142 36.7095 14.4142C37.0045 14.4142 37.2875 14.297 37.4961 14.0884C37.7047 13.8798 37.8219 13.5969 37.8219 13.3018C37.8219 7.168 33.3723 2.17773 26.6978 2.17773Z" fill="#5DADEC"/>
<path d="M32.2599 0C31.6458 0 31.1475 0.451638 31.1475 1.06569C31.1475 1.67974 31.6458 2.22482 32.2599 2.22482C35.5971 2.22482 37.7752 4.69993 37.7752 7.74015C37.7752 8.3542 38.3192 8.85256 38.9343 8.85256C39.5495 8.85256 40 8.3542 40 7.74015C40 3.47183 36.7095 0 32.2599 0Z" fill="#5DADEC"/>
</svg>
