<svg width="80" height="80" viewBox="0 0 80 80" fill="none" xmlns="http://www.w3.org/2000/svg">
<path d="M10.815 20.2586C12.9064 18.7969 16.0589 19.0772 17.9367 20.6279L15.7831 17.4976C14.0499 15.0258 14.6706 12.3516 17.1446 10.6163C19.6186 8.88757 26.629 13.5352 26.629 13.5352C24.8803 11.039 25.2074 7.87528 27.7036 6.12434C28.9038 5.28577 30.3877 4.95791 31.8294 5.2128C33.2711 5.46769 34.5527 6.28447 35.3926 7.48371L58.5752 40.2331L55.6206 68.8776L30.963 59.8849L9.45568 27.9965C9.03629 27.3994 8.73875 26.7254 8.58008 26.0132C8.42142 25.301 8.40473 24.5644 8.53099 23.8457C8.65725 23.127 8.92396 22.4403 9.31589 21.8248C9.70781 21.2093 10.2172 20.6771 10.815 20.2586Z" fill="#EF9645"/>
<path d="M5.99555 38.4759C5.99555 38.4759 3.47706 34.805 7.15023 32.2887C10.819 29.7724 13.3352 33.4412 13.3352 33.4412L25.0177 50.4788C25.4204 49.8069 25.8609 49.1439 26.3526 48.4898L10.1382 24.8467C10.1382 24.8467 7.62189 21.178 11.2928 18.6617C14.9616 16.1454 17.4778 19.8141 17.4778 19.8141L32.7289 42.0557C33.2963 41.5929 33.877 41.1279 34.4754 40.6718L16.7948 14.8839C16.7948 14.8839 14.2785 11.2152 17.9495 8.69895C21.6182 6.18268 24.1345 9.85141 24.1345 9.85141L41.8151 35.6348C42.4647 35.2366 43.1077 34.8918 43.7529 34.5269L27.227 10.4276C27.227 10.4276 24.7107 6.75891 28.3794 4.24264C32.0482 1.72637 34.5644 5.39509 34.5644 5.39509L52.0381 30.8782L54.6946 34.7538C43.6862 42.3048 42.6383 56.5103 48.9278 65.6833C50.1849 67.5187 52.0203 66.2617 52.0203 66.2617C44.4715 55.2511 46.7764 42.8789 57.7871 35.33L54.541 19.0844C54.541 19.0844 53.3285 14.8039 57.6068 13.5891C61.8874 12.3766 63.1021 16.6571 63.1021 16.6571L66.851 27.7901C68.3371 32.2042 69.919 36.6026 72.0125 40.7631C77.9239 52.5101 74.3931 67.1094 63.2468 74.7561C51.0881 83.0925 34.4665 79.9933 26.1279 67.8369L5.99555 38.4759Z" fill="#FFDC5D"/>
<path d="M26.6981 71.1949C17.7988 71.1949 8.80608 62.2022 8.80608 53.3029C8.80608 52.0726 7.90503 51.0781 6.6747 51.0781C5.44438 51.0781 4.35645 52.0726 4.35645 53.3029C4.35645 66.6519 13.3492 75.6446 26.6981 75.6446C27.9284 75.6446 28.9229 74.5566 28.9229 73.3263C28.9229 72.096 27.9284 71.1949 26.6981 71.1949Z" fill="#5DADEC"/>
<path d="M15.5737 75.5502C8.89927 75.5502 4.44963 71.1005 4.44963 64.4261C4.44963 63.836 4.21523 63.2701 3.798 62.8529C3.38077 62.4357 2.81487 62.2013 2.22482 62.2013C1.63476 62.2013 1.06887 62.4357 0.651634 62.8529C0.2344 63.2701 0 63.836 0 64.4261C0 73.3254 6.67445 79.9998 15.5737 79.9998C16.1638 79.9998 16.7297 79.7654 17.1469 79.3482C17.5641 78.931 17.7985 78.3651 17.7985 77.775C17.7985 77.1849 17.5641 76.6191 17.1469 76.2018C16.7297 75.7846 16.1638 75.5502 15.5737 75.5502ZM53.3956 4.35596C52.8055 4.35596 52.2397 4.59036 51.8224 5.00759C51.4052 5.42483 51.1708 5.99072 51.1708 6.58078C51.1708 7.17084 51.4052 7.73673 51.8224 8.15396C52.2397 8.5712 52.8055 8.8056 53.3956 8.8056C62.2949 8.8056 71.1941 16.7905 71.1941 26.6042C71.1941 27.1942 71.4285 27.7601 71.8458 28.1773C72.263 28.5946 72.8289 28.829 73.419 28.829C74.009 28.829 74.5749 28.5946 74.9921 28.1773C75.4094 27.7601 75.6438 27.1942 75.6438 26.6042C75.6438 14.3365 66.7445 4.35596 53.3956 4.35596Z" fill="#5DADEC"/>
<path d="M64.5197 0C63.2916 0 62.2949 0.903277 62.2949 2.13138C62.2949 3.35948 63.2916 4.44964 64.5197 4.44964C71.1942 4.44964 75.5504 9.39986 75.5504 15.4803C75.5504 16.7084 76.6383 17.7051 77.8686 17.7051C79.099 17.7051 80 16.7084 80 15.4803C80 6.94366 73.419 0 64.5197 0Z" fill="#5DADEC"/>
</svg>
