<svg width="80" height="80" viewBox="0 0 80 80" fill="none" xmlns="http://www.w3.org/2000/svg">
<path d="M37 4.04145C38.8564 2.96966 41.1436 2.96966 43 4.04145L69.641 19.4226C71.4974 20.4944 72.641 22.4752 72.641 24.6188V55.3812C72.641 57.5248 71.4974 59.5056 69.641 60.5774L43 75.9585C41.1436 77.0303 38.8564 77.0303 37 75.9585L10.359 60.5774C8.50258 59.5056 7.35898 57.5248 7.35898 55.3812V24.6188C7.35898 22.4752 8.50258 20.4944 10.359 19.4226L37 4.04145Z" stroke="url(#paint0_linear_76_158)" stroke-width="4"/>
<path d="M37.5337 14.3985C39.0635 13.531 40.9365 13.531 42.4663 14.3985L61.715 25.3133C63.281 26.2013 64.2487 27.8625 64.2487 29.6627V51.3373C64.2487 53.1375 63.281 54.7987 61.715 55.6867L42.4663 66.6015C40.9365 67.469 39.0635 67.469 37.5337 66.6015L18.285 55.6867C16.719 54.7987 15.7513 53.1375 15.7513 51.3373V29.6627C15.7513 27.8625 16.719 26.2013 18.285 25.3133L37.5337 14.3985Z" fill="url(#paint1_linear_76_158)"/>
<path d="M59 40.5047C59 37.4548 55.8475 34.5644 51.0143 32.772C52.1296 26.8036 51.6339 22.0552 49.4497 20.5349C48.9462 20.1783 48.3575 20.0094 47.7146 20.0094V22.1021C48.0709 22.1021 48.3575 22.1865 48.5976 22.3461C49.651 23.078 50.108 25.8652 49.7517 29.45C49.6665 30.3321 49.5271 31.2612 49.3567 32.209C47.8386 31.7585 46.181 31.4113 44.4382 31.1861C43.3926 29.45 42.3082 27.8734 41.2161 26.4939C43.7411 23.6505 46.1113 22.0927 47.7224 22.0927V20C45.5923 20 42.8039 21.8393 39.9845 25.03C37.1651 21.8581 34.3767 20.0375 32.2466 20.0375V22.1302C33.85 22.1302 36.2279 23.6786 38.753 26.5033C37.6686 27.8828 36.5842 29.45 35.554 31.1861C33.8035 31.4113 32.1459 31.7585 30.6278 32.2184C30.4497 31.2799 30.318 30.3696 30.225 29.4969C29.861 25.9121 30.3102 23.125 31.3559 22.3836C31.5883 22.2147 31.8903 22.1396 32.2466 22.1396V20.0469C31.596 20.0469 31.0073 20.2158 30.4961 20.5724C28.3196 22.0927 27.8316 26.8318 28.9547 32.7814C24.137 34.5832 21 37.4642 21 40.5047C21 43.5546 24.1525 46.445 28.9857 48.2374C27.8704 54.2058 28.3661 58.9542 30.5503 60.4745C31.0538 60.8311 31.6425 61 32.2931 61C34.4232 61 37.2116 59.1607 40.031 55.97C42.8504 59.1419 45.6388 60.9625 47.7689 60.9625C48.4195 60.9625 49.0082 60.7935 49.5194 60.4369C51.6959 58.9167 52.1839 54.1776 51.0607 48.228C55.863 46.4356 59 43.5452 59 40.5047ZM48.9152 34.2454C48.6286 35.4559 48.2723 36.704 47.8695 37.9522C47.552 37.2014 47.2189 36.4507 46.8549 35.6999C46.4986 34.9492 46.119 34.2172 45.7395 33.504C46.8394 33.7011 47.9005 33.9451 48.9152 34.2454ZM45.3677 44.2396C44.7636 45.5065 44.1439 46.7077 43.501 47.8244C42.3469 47.9464 41.1773 48.0121 40 48.0121C38.8304 48.0121 37.6608 47.9464 36.5145 47.8338C35.8716 46.7171 35.2442 45.5253 34.64 44.2678C34.0514 43.0385 33.5169 41.7903 33.0289 40.5328C33.5092 39.2753 34.0514 38.0179 34.6323 36.7885C35.2364 35.5216 35.8561 34.3204 36.499 33.2037C37.6531 33.0817 38.8227 33.016 40 33.016C41.1696 33.016 42.3392 33.0817 43.4855 33.1943C44.1284 34.3111 44.7558 35.5029 45.36 36.7604C45.9486 37.9897 46.4831 39.2378 46.9711 40.4953C46.4831 41.7528 45.9486 43.0103 45.3677 44.2396ZM47.8695 43.0197C48.2878 44.2772 48.6441 45.5347 48.9384 46.7546C47.9238 47.0549 46.8549 47.3083 45.7472 47.5054C46.1268 46.7828 46.5063 46.0414 46.8626 45.2813C47.2189 44.5306 47.552 43.7704 47.8695 43.0197ZM40.0155 53.0327C39.2952 52.1318 38.5748 51.1277 37.8622 50.0298C38.5593 50.0673 39.2719 50.0954 39.9923 50.0954C40.7203 50.0954 41.4407 50.0767 42.1455 50.0298C41.4484 51.1277 40.7281 52.1318 40.0155 53.0327ZM34.2528 47.5054C33.1529 47.3083 32.0917 47.0643 31.077 46.764C31.3636 45.5534 31.7199 44.3053 32.1227 43.0572C32.4403 43.808 32.7733 44.5587 33.1374 45.3095C33.5014 46.0602 33.8732 46.7922 34.2528 47.5054ZM39.9768 27.9767C40.6971 28.8775 41.4174 29.8817 42.13 30.9796C41.4329 30.9421 40.7203 30.9139 40 30.9139C39.2719 30.9139 38.5516 30.9327 37.8467 30.9796C38.5438 29.8817 39.2642 28.8775 39.9768 27.9767ZM34.245 33.504C33.8655 34.2266 33.4859 34.968 33.1296 35.7281C32.7733 36.4788 32.4403 37.2296 32.1227 37.9803C31.7044 36.7228 31.3481 35.4653 31.0538 34.2454C32.0685 33.9545 33.1374 33.7011 34.245 33.504ZM27.2352 45.2531C24.4933 43.8361 22.7195 41.978 22.7195 40.5047C22.7195 39.0314 24.4933 37.1639 27.2352 35.7562C27.9013 35.409 28.6294 35.0993 29.3808 34.8084C29.8223 36.6477 30.4032 38.5621 31.1235 40.5235C30.4109 42.4754 29.8378 44.3804 29.404 46.2103C28.6372 45.9194 27.9091 45.6004 27.2352 45.2531ZM31.4024 58.6633C30.349 57.9313 29.892 55.1442 30.2483 51.5594C30.3335 50.6773 30.4729 49.7482 30.6433 48.8004C32.1614 49.2509 33.819 49.5981 35.5618 49.8233C36.6074 51.5594 37.6918 53.136 38.7839 54.5154C36.2589 57.3589 33.8887 58.9167 32.2776 58.9167C31.9291 58.9073 31.6347 58.8228 31.4024 58.6633ZM49.775 51.5125C50.139 55.0973 49.6898 57.8844 48.6441 58.6258C48.4117 58.7947 48.1097 58.8698 47.7534 58.8698C46.15 58.8698 43.7721 57.3214 41.247 54.4967C42.3314 53.1172 43.4158 51.55 44.446 49.8139C46.1965 49.5887 47.8541 49.2415 49.3722 48.7816C49.5503 49.7295 49.6898 50.6397 49.775 51.5125ZM52.757 45.2531C52.0909 45.6004 51.3628 45.91 50.6115 46.201C50.17 44.3616 49.5891 42.4472 48.8687 40.4859C49.5813 38.534 50.1545 36.629 50.5883 34.799C51.3551 35.09 52.0832 35.409 52.7648 35.7562C55.5067 37.1733 57.2805 39.0314 57.2805 40.5047C57.2727 41.978 55.499 43.8455 52.757 45.2531Z" fill="#222222"/>
<path d="M40 45C42.7614 45 45 42.7614 45 40C45 37.2386 42.7614 35 40 35C37.2386 35 35 37.2386 35 40C35 42.7614 37.2386 45 40 45Z" fill="#222222"/>
<defs>
<linearGradient id="paint0_linear_76_158" x1="5.5" y1="12" x2="77" y2="87" gradientUnits="userSpaceOnUse">
<stop stop-color="#23C16B"/>
<stop offset="1" stop-color="#0C3825"/>
</linearGradient>
<linearGradient id="paint1_linear_76_158" x1="15.85" y1="21.25" x2="64.956" y2="73.6964" gradientUnits="userSpaceOnUse">
<stop stop-color="#23C16B"/>
<stop offset="1" stop-color="#0C3825"/>
</linearGradient>
</defs>
</svg>
