<svg width="90" height="90" viewBox="0 0 90 90" fill="none" xmlns="http://www.w3.org/2000/svg">
<path d="M42 4.04145C43.8564 2.96965 46.1436 2.96966 48 4.04145L78.9711 21.9226C80.8276 22.9944 81.9711 24.9752 81.9711 27.1188V62.8812C81.9711 65.0248 80.8276 67.0056 78.9711 68.0774L48 85.9585C46.1436 87.0303 43.8564 87.0303 42 85.9585L11.0289 68.0774C9.17245 67.0056 8.02886 65.0248 8.02886 62.8812V27.1188C8.02886 24.9752 9.17245 22.9944 11.0289 21.9227L42 4.04145Z" stroke="url(#paint0_linear_76_99)" stroke-width="4"/>
<path d="M42.5337 16.0235C44.0635 15.156 45.9365 15.156 47.4663 16.0235L69.7461 28.657C71.3121 29.545 72.2798 31.2062 72.2798 33.0064V58.1185C72.2798 59.9188 71.3121 61.58 69.7461 62.468L47.4663 75.1015C45.9365 75.969 44.0635 75.969 42.5337 75.1015L20.2539 62.468C18.6879 61.58 17.7202 59.9188 17.7202 58.1185V33.0064C17.7202 31.2062 18.6879 29.545 20.2539 28.657L42.5337 16.0235Z" fill="url(#paint1_linear_76_99)"/>
<path d="M64.125 45.5667C64.125 42.8051 60.9518 40.1879 56.0867 38.5649C57.2094 33.1606 56.7105 28.8609 54.5118 27.4843C54.005 27.1614 53.4125 27.0085 52.7654 27.0085V28.9034C53.124 28.9034 53.4125 28.9799 53.6542 29.1243C54.7145 29.7871 55.1745 32.3109 54.8159 35.5568C54.7301 36.3556 54.5898 37.1968 54.4183 38.0551C52.8901 37.6472 51.2217 37.3328 49.4674 37.1289C48.4149 35.5568 47.3234 34.1293 46.2241 32.8802C48.7657 30.3055 51.1515 28.8949 52.7732 28.8949V27C50.6291 27 47.8224 28.6655 44.9844 31.5546C42.1465 28.6825 39.3397 27.034 37.1956 27.034V28.9289C38.8095 28.9289 41.2031 30.331 43.7448 32.8887C42.6532 34.1378 41.5617 35.5568 40.5248 37.1289C38.7627 37.3328 37.0943 37.6472 35.5661 38.0636C35.3868 37.2138 35.2543 36.3896 35.1607 35.5993C34.7943 32.3533 35.2465 29.8296 36.299 29.1583C36.5329 29.0054 36.837 28.9374 37.1956 28.9374V27.0425C36.5407 27.0425 35.9482 27.1954 35.4336 27.5183C33.2428 28.8949 32.7516 33.1861 33.8821 38.5734C29.0326 40.2049 25.875 42.8136 25.875 45.5667C25.875 48.3284 29.0482 50.9456 33.9133 52.5686C32.7906 57.9729 33.2895 62.2726 35.4882 63.6491C35.995 63.972 36.5875 64.125 37.2424 64.125C39.3865 64.125 42.1932 62.4595 45.0312 59.5704C47.8691 62.4425 50.6759 64.091 52.82 64.091C53.4749 64.091 54.0674 63.9381 54.582 63.6152C56.7728 62.2386 57.264 57.9474 56.1335 52.5601C60.9674 50.9371 64.125 48.3199 64.125 45.5667ZM53.9739 39.899C53.6854 40.9952 53.3267 42.1253 52.9213 43.2555C52.6017 42.5757 52.2664 41.8959 51.9 41.2161C51.5413 40.5363 51.1593 39.8735 50.7773 39.2277C51.8844 39.4062 52.9525 39.6271 53.9739 39.899ZM50.403 48.9487C49.7949 50.0958 49.1712 51.1835 48.5241 52.1947C47.3624 52.3052 46.1851 52.3646 45 52.3646C43.8227 52.3646 42.6454 52.3052 41.4915 52.2032C40.8444 51.192 40.2129 50.1128 39.6048 48.9742C39.0122 47.861 38.4743 46.7309 37.9831 45.5922C38.4665 44.4536 39.0122 43.3149 39.597 42.2018C40.2051 41.0546 40.8288 39.967 41.4759 38.9558C42.6376 38.8453 43.8149 38.7858 45 38.7858C46.1773 38.7858 47.3546 38.8453 48.5085 38.9473C49.1556 39.9585 49.7871 41.0377 50.3952 42.1763C50.9878 43.2895 51.5257 44.4196 52.0169 45.5582C51.5257 46.6969 50.9878 47.8355 50.403 48.9487ZM52.9213 47.844C53.3423 48.9827 53.701 50.1213 53.9972 51.226C52.9759 51.4979 51.9 51.7273 50.7851 51.9058C51.1671 51.2515 51.5491 50.5802 51.9078 49.8919C52.2664 49.2121 52.6017 48.5238 52.9213 47.844ZM45.0156 56.9107C44.2905 56.095 43.5654 55.1858 42.8481 54.1916C43.5498 54.2256 44.2671 54.2511 44.9922 54.2511C45.7251 54.2511 46.4502 54.2341 47.1597 54.1916C46.458 55.1858 45.7329 56.095 45.0156 56.9107ZM39.2149 51.9058C38.1078 51.7273 37.0397 51.5064 36.0183 51.2345C36.3068 50.1383 36.6655 49.0082 37.0709 47.878C37.3905 48.5578 37.7258 49.2376 38.0922 49.9174C38.4587 50.5972 38.8329 51.26 39.2149 51.9058ZM44.9766 34.2228C45.7017 35.0385 46.4268 35.9477 47.1441 36.9419C46.4424 36.9079 45.7251 36.8824 45 36.8824C44.2671 36.8824 43.542 36.8994 42.8326 36.9419C43.5342 35.9477 44.2593 35.0385 44.9766 34.2228ZM39.2071 39.2277C38.8251 39.882 38.4431 40.5533 38.0844 41.2416C37.7258 41.9214 37.3905 42.6012 37.0709 43.281C36.6499 42.1423 36.2912 41.0037 35.995 39.899C37.0163 39.6356 38.0922 39.4062 39.2071 39.2277ZM32.1512 49.8664C29.3913 48.5833 27.6058 46.9008 27.6058 45.5667C27.6058 44.2327 29.3913 42.5417 32.1512 41.2671C32.8218 40.9527 33.5546 40.6723 34.3109 40.4088C34.7553 42.0743 35.34 43.8078 36.0651 45.5837C35.3478 47.3512 34.7709 49.0762 34.3343 50.7331C33.5624 50.4697 32.8295 50.1808 32.1512 49.8664ZM36.3458 62.0092C35.2855 61.3464 34.8255 58.8226 35.1841 55.5766C35.2699 54.7779 35.4102 53.9367 35.5817 53.0784C37.1099 53.4863 38.7783 53.8007 40.5326 54.0046C41.5851 55.5766 42.6766 57.0042 43.7759 58.2533C41.2343 60.828 38.8485 62.2386 37.2268 62.2386C36.876 62.2301 36.5797 62.1536 36.3458 62.0092ZM54.8393 55.5342C55.2057 58.7802 54.7535 61.3039 53.701 61.9752C53.4671 62.1281 53.163 62.1961 52.8044 62.1961C51.1905 62.1961 48.7969 60.794 46.2553 58.2363C47.3468 56.9872 48.4383 55.5681 49.4752 53.9961C51.2373 53.7922 52.9057 53.4778 54.4339 53.0614C54.6132 53.9197 54.7535 54.7439 54.8393 55.5342ZM57.841 49.8664C57.1705 50.1808 56.4376 50.4612 55.6813 50.7246C55.2369 49.0592 54.6522 47.3257 53.9271 45.5498C54.6444 43.7823 55.2213 42.0573 55.6579 40.4003C56.4298 40.6638 57.1627 40.9527 57.8488 41.2671C60.6087 42.5502 62.3942 44.2327 62.3942 45.5667C62.3864 46.9008 60.6009 48.5918 57.841 49.8664Z" fill="#222222"/>
<path d="M45 49.5C47.4853 49.5 49.5 47.4853 49.5 45C49.5 42.5147 47.4853 40.5 45 40.5C42.5147 40.5 40.5 42.5147 40.5 45C40.5 47.4853 42.5147 49.5 45 49.5Z" fill="#222222"/>
<defs>
<linearGradient id="paint0_linear_76_99" x1="6.1875" y1="13.5" x2="86.625" y2="97.875" gradientUnits="userSpaceOnUse">
<stop stop-color="#23C16B"/>
<stop offset="1" stop-color="#0C3825"/>
</linearGradient>
<linearGradient id="paint1_linear_76_99" x1="17.8312" y1="23.9063" x2="73.0755" y2="82.9084" gradientUnits="userSpaceOnUse">
<stop stop-color="#23C16B"/>
<stop offset="1" stop-color="#0C3825"/>
</linearGradient>
</defs>
</svg>
