<svg width="90" height="90" viewBox="0 0 90 90" fill="none" xmlns="http://www.w3.org/2000/svg">
<path d="M42 4.04145C43.8564 2.96965 46.1436 2.96966 48 4.04145L78.9711 21.9226C80.8276 22.9944 81.9711 24.9752 81.9711 27.1188V62.8812C81.9711 65.0248 80.8276 67.0056 78.9711 68.0774L48 85.9585C46.1436 87.0303 43.8564 87.0303 42 85.9585L11.0289 68.0774C9.17245 67.0056 8.02886 65.0248 8.02886 62.8812V27.1188C8.02886 24.9752 9.17245 22.9944 11.0289 21.9227L42 4.04145Z" stroke="url(#paint0_linear_76_97)" stroke-width="4"/>
<path d="M42.5337 16.0235C44.0635 15.156 45.9365 15.156 47.4663 16.0235L69.7461 28.657C71.3121 29.545 72.2798 31.2062 72.2798 33.0064V58.1185C72.2798 59.9188 71.3121 61.58 69.7461 62.468L47.4663 75.1015C45.9365 75.969 44.0635 75.969 42.5337 75.1015L20.2539 62.468C18.6879 61.58 17.7202 59.9188 17.7202 58.1185V33.0064C17.7202 31.2062 18.6879 29.545 20.2539 28.657L42.5337 16.0235Z" fill="url(#paint1_linear_76_97)"/>
<path d="M27 36.1338V38.2145H33.6962V57.1073H38.4479V38.2145H45.1442V36.172C45.1442 35.0232 45.1442 34.0913 45.0927 34.0658C45.0927 34.0275 41.0105 34.0147 36.0528 34.0147L27.0386 34.053V36.1465L27 36.1338ZM57.0943 34.0019C58.4078 34.3083 59.4122 34.8955 60.3137 35.8274C60.7901 36.338 61.4984 37.2316 61.5499 37.4614C61.5499 37.5379 59.3221 39.0315 57.97 39.8613C57.9185 39.8995 57.7124 39.6825 57.5064 39.3506C56.8368 38.406 56.1543 37.9975 55.0855 37.9209C53.5402 37.8188 52.51 38.623 52.51 39.9634C52.51 40.3719 52.5873 40.6016 52.7418 40.9335C53.0895 41.6356 53.7333 42.0569 55.7293 42.925C59.4122 44.4951 61.009 45.5291 61.9748 47.0099C63.0694 48.6694 63.3141 51.2735 62.5801 53.2266C61.7559 55.3585 59.7471 56.801 56.8754 57.2733C55.974 57.4265 53.9136 57.4009 52.9478 57.235C50.8875 56.852 48.9172 55.8308 47.7067 54.516C47.2303 54.0053 46.316 52.6394 46.3675 52.5501L46.8568 52.2437L48.7884 51.1331L50.2436 50.2906L50.5784 50.7374C51.0033 51.4012 51.9563 52.2948 52.51 52.6011C54.184 53.4564 56.4247 53.3415 57.5322 52.3458C58.0086 51.9118 58.2147 51.4523 58.2147 50.814C58.2147 50.2268 58.1245 49.9587 57.8283 49.5119C57.4163 48.9502 56.5921 48.4907 54.2742 47.4694C51.6086 46.3461 50.4754 45.6312 49.4194 44.5334C48.8142 43.8696 48.2605 42.8356 48.0029 41.9803C47.8098 41.2399 47.7454 39.4272 47.9257 38.6996C48.4794 36.1465 50.4239 34.3594 53.2054 33.8487C54.1068 33.67 56.2315 33.7466 57.1201 33.9764L57.0943 34.0019Z" fill="#222222"/>
<defs>
<linearGradient id="paint0_linear_76_97" x1="6.1875" y1="13.5" x2="86.625" y2="97.875" gradientUnits="userSpaceOnUse">
<stop stop-color="#23C16B"/>
<stop offset="1" stop-color="#0C3825"/>
</linearGradient>
<linearGradient id="paint1_linear_76_97" x1="17.8312" y1="23.9063" x2="73.0755" y2="82.9084" gradientUnits="userSpaceOnUse">
<stop stop-color="#23C16B"/>
<stop offset="1" stop-color="#0C3825"/>
</linearGradient>
</defs>
</svg>
