<svg width="80" height="80" viewBox="0 0 80 80" fill="none" xmlns="http://www.w3.org/2000/svg">
<path d="M37 4.04145C38.8564 2.96966 41.1436 2.96966 43 4.04145L69.641 19.4226C71.4974 20.4944 72.641 22.4752 72.641 24.6188V55.3812C72.641 57.5248 71.4974 59.5056 69.641 60.5774L43 75.9585C41.1436 77.0303 38.8564 77.0303 37 75.9585L10.359 60.5774C8.50258 59.5056 7.35898 57.5248 7.35898 55.3812V24.6188C7.35898 22.4752 8.50258 20.4944 10.359 19.4226L37 4.04145Z" stroke="url(#paint0_linear_76_152)" stroke-width="4"/>
<path d="M37.5337 14.3985C39.0635 13.531 40.9365 13.531 42.4663 14.3985L61.715 25.3133C63.281 26.2013 64.2487 27.8625 64.2487 29.6627V51.3373C64.2487 53.1375 63.281 54.7987 61.715 55.6867L42.4663 66.6015C40.9365 67.469 39.0635 67.469 37.5337 66.6015L18.285 55.6867C16.719 54.7987 15.7513 53.1375 15.7513 51.3373V29.6627C15.7513 27.8625 16.719 26.2013 18.285 25.3133L37.5337 14.3985Z" fill="url(#paint1_linear_76_152)"/>
<path d="M24 29.6881V32.0345H29.9522V53.3395H34.176V32.0345H40.1281V29.7313C40.1281 28.4357 40.1281 27.3849 40.0824 27.3561C40.0824 27.3129 36.4538 27.2985 32.0469 27.2985L24.0343 27.3417V29.7025L24 29.6881ZM50.7505 27.2841C51.9181 27.6296 52.8109 28.2918 53.6121 29.3426C54.0357 29.9184 54.6652 30.9261 54.711 31.1852C54.711 31.2716 52.7308 32.9558 51.5289 33.8915C51.4831 33.9347 51.2999 33.69 51.1168 33.3157C50.5216 32.2504 49.9149 31.7898 48.9649 31.7034C47.5913 31.5883 46.6755 32.4952 46.6755 34.0067C46.6755 34.4673 46.7442 34.7264 46.8816 35.1007C47.1906 35.8924 47.763 36.3675 49.5372 37.3464C52.8109 39.117 54.2302 40.283 55.0887 41.9528C56.0617 43.8242 56.2792 46.7609 55.6267 48.9633C54.8941 51.3673 53.1085 52.994 50.5559 53.5266C49.7547 53.6994 47.9232 53.6706 47.0647 53.4834C45.2333 53.0516 43.482 51.9 42.406 50.4172C41.9825 49.8414 41.1698 48.3011 41.2156 48.2004L41.6505 47.8549L43.3675 46.6025L44.661 45.6524L44.9586 46.1562C45.3363 46.9048 46.1833 47.9125 46.6755 48.258C48.1636 49.2224 50.1553 49.0929 51.1397 47.9701C51.5632 47.4806 51.7464 46.9624 51.7464 46.2426C51.7464 45.5804 51.6662 45.2781 51.403 44.7743C51.0367 44.1409 50.3041 43.6227 48.2437 42.4711C45.8743 41.2043 44.867 40.3982 43.9284 39.1602C43.3904 38.4116 42.8982 37.2456 42.6693 36.2811C42.4976 35.4462 42.4403 33.4021 42.6006 32.5815C43.0928 29.7025 44.8212 27.6872 47.2937 27.1113C48.0949 26.9098 49.9836 26.9962 50.7734 27.2553L50.7505 27.2841Z" fill="#222222"/>
<defs>
<linearGradient id="paint0_linear_76_152" x1="5.5" y1="12" x2="77" y2="87" gradientUnits="userSpaceOnUse">
<stop stop-color="#23C16B"/>
<stop offset="1" stop-color="#0C3825"/>
</linearGradient>
<linearGradient id="paint1_linear_76_152" x1="15.85" y1="21.25" x2="64.956" y2="73.6964" gradientUnits="userSpaceOnUse">
<stop stop-color="#23C16B"/>
<stop offset="1" stop-color="#0C3825"/>
</linearGradient>
</defs>
</svg>
