<svg width="24" height="24" viewBox="0 0 24 24" fill="none" xmlns="http://www.w3.org/2000/svg">
<path d="M3.24445 6.07708C3.87185 5.63857 4.81762 5.72267 5.38094 6.18788L4.73486 5.24878C4.21492 4.50725 4.40113 3.70498 5.14333 3.18437C5.88553 2.66577 7.98865 4.06006 7.98865 4.06006C7.46404 3.31119 7.56216 2.36208 8.31103 1.8368C8.67107 1.58523 9.11625 1.48687 9.54877 1.56334C9.98129 1.63981 10.3658 1.88484 10.6177 2.24461L17.5725 12.0694L16.6861 20.6628L9.28884 17.965L2.83664 8.39846C2.71083 8.21932 2.62156 8.01713 2.57396 7.80345C2.52636 7.58978 2.52136 7.36882 2.55924 7.15321C2.59711 6.93761 2.67713 6.73158 2.7947 6.54693C2.91228 6.36227 3.06511 6.20261 3.24445 6.07708Z" fill="#EF9645"/>
<path d="M1.79878 11.5428C1.79878 11.5428 1.04323 10.4415 2.14518 9.68663C3.2458 8.93175 4.00068 10.0324 4.00068 10.0324L7.50544 15.1437C7.62625 14.9421 7.7584 14.7432 7.90591 14.547L3.04156 7.45402C3.04156 7.45402 2.28668 6.3534 3.38797 5.59852C4.48859 4.84364 5.24347 5.94426 5.24347 5.94426L9.8188 12.6167C9.989 12.4779 10.1632 12.3384 10.3427 12.2016L5.03856 4.4652C5.03856 4.4652 4.28368 3.36458 5.38496 2.6097C6.48558 1.85482 7.24046 2.95544 7.24046 2.95544L12.5447 10.6905C12.7395 10.571 12.9324 10.4675 13.126 10.3581L8.16821 3.12831C8.16821 3.12831 7.41333 2.02769 8.51395 1.27281C9.61457 0.517929 10.3694 1.61855 10.3694 1.61855L15.6116 9.26346L16.4085 10.4262C13.106 12.6915 12.7916 16.9531 14.6785 19.705C15.0556 20.2556 15.6062 19.8785 15.6062 19.8785C13.3416 16.5753 14.0331 12.8637 17.3362 10.599L16.3624 5.72534C16.3624 5.72534 15.9987 4.44117 17.2822 4.07675C18.5663 3.71299 18.9308 4.99715 18.9308 4.99715L20.0554 8.33705C20.5013 9.66126 20.9758 10.9808 21.6039 12.2289C23.3773 15.753 22.3181 20.1328 18.9742 22.4268C15.3266 24.9277 10.3401 23.998 7.83849 20.3511L1.79878 11.5428Z" fill="#FFDC5D"/>
<path d="M8.00937 21.3583C5.33959 21.3583 2.64178 18.6604 2.64178 15.9907C2.64178 15.6216 2.37146 15.3232 2.00236 15.3232C1.63327 15.3232 1.30688 15.6216 1.30688 15.9907C1.30688 19.9953 4.0047 22.6931 8.00937 22.6931C8.37847 22.6931 8.67682 22.3668 8.67682 21.9977C8.67682 21.6286 8.37847 21.3583 8.00937 21.3583Z" fill="#5DADEC"/>
<path d="M4.67212 22.6651C2.66978 22.6651 1.33489 21.3302 1.33489 19.3279C1.33489 19.1509 1.26457 18.9811 1.1394 18.856C1.01423 18.7308 0.844463 18.6605 0.667445 18.6605C0.490428 18.6605 0.320661 18.7308 0.19549 18.856C0.0703199 18.9811 0 19.1509 0 19.3279C0 21.9977 2.00234 24 4.67212 24C4.84913 24 5.0189 23.9297 5.14407 23.8045C5.26924 23.6794 5.33956 23.5096 5.33956 23.3326C5.33956 23.1556 5.26924 22.9858 5.14407 22.8606C5.0189 22.7355 4.84913 22.6651 4.67212 22.6651ZM16.0187 1.30688C15.8417 1.30688 15.6719 1.3772 15.5467 1.50237C15.4216 1.62755 15.3512 1.79731 15.3512 1.97433C15.3512 2.15135 15.4216 2.32112 15.5467 2.44629C15.6719 2.57146 15.8417 2.64178 16.0187 2.64178C18.6885 2.64178 21.3583 5.03724 21.3583 7.98134C21.3583 8.15836 21.4286 8.32812 21.5537 8.45329C21.6789 8.57846 21.8487 8.64878 22.0257 8.64878C22.2027 8.64878 22.3725 8.57846 22.4977 8.45329C22.6228 8.32812 22.6931 8.15836 22.6931 7.98134C22.6931 4.30104 20.0234 1.30688 16.0187 1.30688Z" fill="#5DADEC"/>
<path d="M19.3559 0C18.9875 0 18.6885 0.270983 18.6885 0.639413C18.6885 1.00784 18.9875 1.33489 19.3559 1.33489C21.3583 1.33489 22.6651 2.81996 22.6651 4.64409C22.6651 5.01252 22.9915 5.31153 23.3606 5.31153C23.7297 5.31153 24 5.01252 24 4.64409C24 2.0831 22.0257 0 19.3559 0Z" fill="#5DADEC"/>
</svg>
